<svg width="34" height="34" viewBox="0 0 34 34" fill="none" xmlns="http://www.w3.org/2000/svg">
<path d="M32.7496 1.275C32.5183 1.04324 32.2436 0.859373 31.9411 0.733919C31.6387 0.608465 31.3145 0.54389 30.9871 0.54389C30.6597 0.54389 30.3354 0.608465 30.033 0.733919C29.7306 0.859373 29.4559 1.04324 29.2246 1.275L16.9996 13.475L4.77458 1.25C4.54313 1.01854 4.26835 0.834945 3.96594 0.709682C3.66353 0.58442 3.33941 0.519949 3.01208 0.519949C2.68476 0.519949 2.36063 0.58442 2.05822 0.709682C1.75581 0.834945 1.48104 1.01854 1.24958 1.25C1.01813 1.48145 0.834527 1.75623 0.709265 2.05864C0.584002 2.36105 0.519531 2.68517 0.519531 3.0125C0.519531 3.33983 0.584002 3.66395 0.709265 3.96636C0.834527 4.26877 1.01813 4.54355 1.24958 4.775L13.4746 17L1.24958 29.225C1.01813 29.4564 0.834527 29.7312 0.709265 30.0336C0.584002 30.3361 0.519531 30.6602 0.519531 30.9875C0.519531 31.3148 0.584002 31.6389 0.709265 31.9414C0.834527 32.2438 1.01813 32.5185 1.24958 32.75C1.48104 32.9814 1.75581 33.165 2.05822 33.2903C2.36063 33.4156 2.68476 33.48 3.01208 33.48C3.33941 33.48 3.66353 33.4156 3.96594 33.2903C4.26835 33.165 4.54313 32.9814 4.77458 32.75L16.9996 20.525L29.2246 32.75C29.456 32.9814 29.7308 33.165 30.0332 33.2903C30.3356 33.4156 30.6597 33.48 30.9871 33.48C31.3144 33.48 31.6385 33.4156 31.9409 33.2903C32.2433 33.165 32.5181 32.9814 32.7496 32.75C32.981 32.5185 33.1646 32.2438 33.2899 31.9414C33.4152 31.6389 33.4796 31.3148 33.4796 30.9875C33.4796 30.6602 33.4152 30.3361 33.2899 30.0336C33.1646 29.7312 32.981 29.4564 32.7496 29.225L20.5246 17L32.7496 4.775C33.6996 3.825 33.6996 2.225 32.7496 1.275Z" fill="white"/>
</svg>
