<svg width="28" height="28" viewBox="0 0 28 28" fill="none" xmlns="http://www.w3.org/2000/svg">
<path d="M14 25.25C15.4774 25.25 16.9403 24.959 18.3052 24.3936C19.6701 23.8283 20.9103 22.9996 21.9549 21.9549C22.9996 20.9103 23.8283 19.6701 24.3936 18.3052C24.959 16.9403 25.25 15.4774 25.25 14C25.25 12.5226 24.959 11.0597 24.3936 9.69481C23.8283 8.3299 22.9996 7.08971 21.9549 6.04505C20.9103 5.00039 19.6701 4.17172 18.3052 3.60635C16.9403 3.04099 15.4774 2.75 14 2.75C11.0163 2.75 8.15483 3.93526 6.04505 6.04505C3.93526 8.15483 2.75 11.0163 2.75 14C2.75 16.9837 3.93526 19.8452 6.04505 21.9549C8.15483 24.0647 11.0163 25.25 14 25.25ZM27.75 14C27.75 21.5937 21.5937 27.75 14 27.75C6.40625 27.75 0.25 21.5937 0.25 14C0.25 6.40625 6.40625 0.25 14 0.25C21.5937 0.25 27.75 6.40625 27.75 14ZM17.75 19.5175L12.75 14.5175V5.875H15.25V13.4825L19.5175 17.75L17.75 19.5175Z" fill="#E5252A"/>
</svg>
