<svg width="26" height="26" viewBox="0 0 26 26" fill="none" xmlns="http://www.w3.org/2000/svg">
<path fill-rule="evenodd" clip-rule="evenodd" d="M6.89093 2.8626C6.61496 2.62526 6.26209 2.49637 5.89811 2.49995L5.88827 2.50005V2.5H2.13877C1.93068 2.50026 1.72491 2.54381 1.53456 2.62789C1.34407 2.71203 1.17318 2.83491 1.03279 2.98872C0.892391 3.14252 0.785557 3.32387 0.719088 3.52122C0.653361 3.71637 0.628526 3.92294 0.646101 4.12805C1.04132 7.83243 2.30245 11.3919 4.32762 14.5189L4.33232 14.5262L4.33228 14.5262C6.17272 17.4225 8.62828 19.8781 11.5246 21.7185L11.5323 21.7234L11.5323 21.7234C14.6447 23.7413 18.1865 25.0021 21.8738 25.4048C22.0792 25.4222 22.286 25.3971 22.4813 25.3311C22.6792 25.2642 22.8609 25.1567 23.0148 25.0155C23.1688 24.8742 23.2915 24.7025 23.3752 24.5111C23.4588 24.3197 23.5016 24.1129 23.5008 23.9041L23.5008 23.9V20.15C23.5008 20.1417 23.5009 20.1335 23.5011 20.1252C23.5102 19.7574 23.3838 19.399 23.146 19.1183C22.909 18.8386 22.5778 18.6554 22.215 18.6033C20.9417 18.4354 19.6915 18.1237 18.4883 17.6743L18.4864 17.6736C18.218 17.5726 17.9262 17.5508 17.6458 17.6106C17.366 17.6703 17.1092 17.8087 16.9056 18.0094C16.905 18.01 16.9045 18.0105 16.9039 18.0111L15.3204 19.5946C15.0021 19.9129 14.5103 19.9793 14.119 19.7568C10.8331 17.8884 8.11239 15.1677 6.24398 11.8818C6.02146 11.4905 6.08785 10.9987 6.40616 10.6804L7.99145 9.09511C8.19216 8.89147 8.3305 8.63469 8.39015 8.35502C8.44997 8.07455 8.42813 7.7828 8.32722 7.51436L8.3265 7.51244C7.87707 6.30932 7.56542 5.05915 7.39753 3.78587C7.34581 3.42705 7.16587 3.09904 6.89093 2.8626ZM5.88377 0.5C6.73116 0.492951 7.55241 0.793596 8.19501 1.34623C8.83896 1.90003 9.25956 2.66908 9.37843 3.51005L9.37978 3.51959L9.37973 3.51959C9.52772 4.64475 9.80292 5.74947 10.2 6.81256L9.26327 7.1625L10.1993 6.81064C10.4348 7.43701 10.4857 8.11774 10.3462 8.77218C10.2066 9.42662 9.88233 10.0273 9.41182 10.5031L9.40789 10.5071L9.40788 10.5071L8.37037 11.5446C9.90669 14.0119 11.9888 16.0941 14.4562 17.6304L15.4937 16.5929L15.4976 16.5889C15.9734 16.1184 16.5742 15.7942 17.2286 15.6546C17.8826 15.5151 18.5628 15.5659 19.1888 15.801C20.2517 16.198 21.3562 16.4731 22.4812 16.621L22.4905 16.6223L22.4905 16.6223C23.3406 16.7422 24.1169 17.1704 24.6719 17.8254C25.224 18.477 25.5187 19.3079 25.5008 20.1614V23.898" fill="#E5252A"/>
</svg>
