<svg width="24" height="24" viewBox="0 0 24 24" fill="none" xmlns="http://www.w3.org/2000/svg">
<path d="M13.1997 0.333496C14.5122 0.336996 15.1783 0.343996 15.7535 0.360329L15.9798 0.368496C16.2412 0.377829 16.499 0.389496 16.8105 0.403496C18.0518 0.461829 18.8988 0.65783 19.642 0.945996C20.412 1.24233 21.0607 1.64366 21.7093 2.29116C22.3028 2.87418 22.7619 3.57971 23.0545 4.3585C23.3427 5.10166 23.5387 5.94866 23.597 7.19116C23.611 7.5015 23.6227 7.75933 23.632 8.02183L23.639 8.24816C23.6565 8.82216 23.6635 9.48833 23.6658 10.8008L23.667 11.6712V13.1995C23.6698 14.0505 23.6609 14.9014 23.6402 15.7522L23.6332 15.9785C23.6238 16.241 23.6122 16.4988 23.5982 16.8092C23.5398 18.0517 23.3415 18.8975 23.0545 19.6418C22.7619 20.4206 22.3028 21.1261 21.7093 21.7092C21.1263 22.3026 20.4208 22.7617 19.642 23.0543C18.8988 23.3425 18.0518 23.5385 16.8105 23.5968L15.9798 23.6318L15.7535 23.6388C15.1783 23.6552 14.5122 23.6633 13.1997 23.6657L12.3293 23.6668H10.8022C9.95081 23.6698 9.09945 23.6609 8.24834 23.64L8.022 23.633C7.74505 23.6225 7.46816 23.6105 7.19134 23.5968C5.95 23.5385 5.103 23.3425 4.35867 23.0543C3.58031 22.7616 2.87519 22.3025 2.2925 21.7092C1.69861 21.1263 1.23913 20.4207 0.946172 19.6418C0.658005 18.8987 0.462005 18.0517 0.403671 16.8092L0.368671 15.9785L0.362838 15.7522C0.341332 14.9014 0.331609 14.0505 0.333671 13.1995V10.8008C0.330442 9.94986 0.338999 9.09889 0.359338 8.24816L0.367505 8.02183C0.376838 7.75933 0.388505 7.5015 0.402505 7.19116C0.460838 5.94866 0.656838 5.10283 0.945005 4.3585C1.23865 3.57939 1.69893 2.87384 2.29367 2.29116C2.87602 1.69797 3.58072 1.23892 4.35867 0.945996C5.103 0.65783 5.94884 0.461829 7.19134 0.403496C7.50167 0.389496 7.76067 0.377829 8.022 0.368496L8.24834 0.361496C9.09906 0.340768 9.95003 0.331822 10.801 0.334663L13.1997 0.333496ZM12.0003 6.16683C10.4532 6.16683 8.96951 6.78141 7.87555 7.87537C6.78159 8.96934 6.167 10.4531 6.167 12.0002C6.167 13.5473 6.78159 15.031 7.87555 16.125C8.96951 17.2189 10.4532 17.8335 12.0003 17.8335C13.5474 17.8335 15.0312 17.2189 16.1251 16.125C17.2191 15.031 17.8337 13.5473 17.8337 12.0002C17.8337 10.4531 17.2191 8.96934 16.1251 7.87537C15.0312 6.78141 13.5474 6.16683 12.0003 6.16683ZM12.0003 8.50016C12.46 8.50009 12.9151 8.59054 13.3398 8.76636C13.7644 8.94218 14.1503 9.19993 14.4754 9.52488C14.8004 9.84983 15.0583 10.2356 15.2343 10.6602C15.4102 11.0848 15.5008 11.54 15.5009 11.9996C15.501 12.4592 15.4105 12.9143 15.2347 13.339C15.0589 13.7637 14.8012 14.1496 14.4762 14.4746C14.1513 14.7997 13.7655 15.0576 13.3409 15.2335C12.9162 15.4095 12.4611 15.5001 12.0015 15.5002C11.0732 15.5002 10.183 15.1314 9.52663 14.475C8.87025 13.8187 8.5015 12.9284 8.5015 12.0002C8.5015 11.0719 8.87025 10.1817 9.52663 9.52529C10.183 8.86891 11.0732 8.50016 12.0015 8.50016M18.1265 4.41683C17.7397 4.41683 17.3688 4.57047 17.0953 4.84397C16.8218 5.11746 16.6682 5.48839 16.6682 5.87516C16.6682 6.26194 16.8218 6.63287 17.0953 6.90636C17.3688 7.17985 17.7397 7.3335 18.1265 7.3335C18.5133 7.3335 18.8842 7.17985 19.1577 6.90636C19.4312 6.63287 19.5848 6.26194 19.5848 5.87516C19.5848 5.48839 19.4312 5.11746 19.1577 4.84397C18.8842 4.57047 18.5133 4.41683 18.1265 4.41683Z" fill="#E5252A"/>
</svg>
