<svg width="30" height="20" viewBox="0 0 30 20" fill="none" xmlns="http://www.w3.org/2000/svg">
<path d="M12.1663 14.2502L19.5188 10.0002L12.1663 5.75016V14.2502ZM28.543 3.15766C28.7272 3.8235 28.8547 4.716 28.9397 5.84933C29.0388 6.98266 29.0813 7.96016 29.0813 8.81016L29.1663 10.0002C29.1663 13.1027 28.9397 15.3835 28.543 16.8427C28.1888 18.1177 27.3672 18.9393 26.0922 19.2935C25.4263 19.4777 24.208 19.6052 22.338 19.6902C20.4963 19.7893 18.8105 19.8318 17.2522 19.8318L14.9997 19.9168C9.06384 19.9168 5.36634 19.6902 3.90717 19.2935C2.63217 18.9393 1.81051 18.1177 1.45634 16.8427C1.27217 16.1768 1.14467 15.2843 1.05967 14.151C0.960508 13.0177 0.918008 12.0402 0.918008 11.1902L0.833008 10.0002C0.833008 6.89766 1.05967 4.61683 1.45634 3.15766C1.81051 1.88266 2.63217 1.061 3.90717 0.70683C4.57301 0.522663 5.79134 0.395163 7.66134 0.310163C9.50301 0.210996 11.1888 0.168496 12.7472 0.168496L14.9997 0.0834961C20.9355 0.0834961 24.633 0.310163 26.0922 0.70683C27.3672 1.061 28.1888 1.88266 28.543 3.15766Z" fill="#E5252A"/>
</svg>
