<svg width="29" height="33" viewBox="0 0 29 33" fill="none" xmlns="http://www.w3.org/2000/svg">
<path d="M1.9875 0.399902L17.1469 15.4499L21.3031 11.2937L2.92812 0.684277C2.62188 0.506543 2.29375 0.408106 1.9875 0.399902ZM0.71875 1.0999C0.582032 1.34326 0.5 1.63037 0.5 1.95303V31.1999C0.5 31.4351 0.549219 31.6456 0.63125 31.8343L16.1406 16.4343L0.71875 1.0999ZM22.5719 12.0155L18.1313 16.4343L22.5719 20.8312L27.9969 17.7249C28.768 17.2792 28.8773 16.7132 28.8719 16.4124C28.8637 15.9147 28.5492 15.4499 28.0187 15.1655C27.5566 14.9167 24.125 12.9179 22.5719 12.0155ZM17.1469 17.4187L1.85625 32.578C2.11055 32.5644 2.38672 32.5097 2.64375 32.3593C3.24258 32.012 15.3531 25.0093 15.3531 25.0093L21.325 21.5749L17.1469 17.4187Z" fill="#E5252A"/>
</svg>
