<svg width="35" height="35" viewBox="0 0 35 35" fill="none" xmlns="http://www.w3.org/2000/svg">
<path d="M17.5013 20.4167C20.7184 20.4167 23.3346 17.8004 23.3346 14.5833C23.3346 11.3663 20.7184 8.75 17.5013 8.75C14.2842 8.75 11.668 11.3663 11.668 14.5833C11.668 17.8004 14.2842 20.4167 17.5013 20.4167ZM17.5013 11.6667C19.1098 11.6667 20.418 12.9748 20.418 14.5833C20.418 16.1919 19.1098 17.5 17.5013 17.5C15.8928 17.5 14.5846 16.1919 14.5846 14.5833C14.5846 12.9748 15.8928 11.6667 17.5013 11.6667Z" fill="#E5252A"/>
<path d="M16.653 31.8121C16.9 31.9879 17.1956 32.0824 17.4988 32.0824C17.802 32.0824 18.0977 31.9879 18.3447 31.8121C18.788 31.4985 29.2078 23.975 29.1655 14.5833C29.1655 8.15063 23.9315 2.91667 17.4988 2.91667C11.0661 2.91667 5.83216 8.15063 5.83216 14.576C5.78987 23.975 16.2097 31.4985 16.653 31.8121ZM17.4988 5.83334C22.3245 5.83334 26.2488 9.75771 26.2488 14.5906C26.2795 21.0627 19.8497 26.8742 17.4988 28.7802C15.1495 26.8727 8.7182 21.0598 8.74883 14.5833C8.74883 9.75771 12.6732 5.83334 17.4988 5.83334Z" fill="#E5252A"/>
</svg>
