<svg width="30" height="35" viewBox="0 0 30 35" fill="none" xmlns="http://www.w3.org/2000/svg">
<path d="M27.5222 30.9377C26.0351 33.1593 24.4584 35.3272 22.0576 35.3631C19.6568 35.4168 18.8863 33.9477 16.163 33.9477C13.4218 33.9477 12.5797 35.3272 10.3043 35.4168C7.95718 35.5064 6.18343 33.0518 4.67843 30.8839C1.61468 26.4585 -0.732406 18.3064 2.42093 12.8239C3.97968 10.1006 6.77468 8.38058 9.80259 8.32683C12.0959 8.291 14.2818 9.88558 15.6972 9.88558C17.0947 9.88558 19.7463 7.9685 22.5234 8.25516C23.688 8.30891 26.9488 8.721 29.0451 11.8027C28.8838 11.9102 25.1572 14.096 25.193 18.6289C25.2468 24.0397 29.9409 25.8493 29.9947 25.8672C29.9409 25.9927 29.2422 28.4472 27.5222 30.9377ZM17.2918 2.271C18.5997 0.783913 20.7676 -0.344837 22.5593 -0.416504C22.7922 1.67975 21.9501 3.79391 20.6959 5.29891C19.4597 6.82183 17.4172 8.00433 15.4105 7.84308C15.1418 5.78266 16.1451 3.63266 17.2918 2.271Z" fill="#E5252A"/>
</svg>
