<svg width="26" height="28" viewBox="0 0 26 28" fill="none" xmlns="http://www.w3.org/2000/svg">
<path d="M10.0063 25.9282C14.8147 21.1465 18.5759 17.3242 22.7596 13.2209C24.1408 11.7783 25.0156 10.3664 25.3839 8.98519C26.0285 6.37869 25.0375 4.12159 23.3121 2.35533C21.6546 0.697868 19.8821 -0.0848181 17.9944 0.00727076C15.1629 0.145404 14.2421 1.05088 12.4005 2.8618L0.660031 14.6482L2.59376 16.5358L14.3342 4.79548C15.5389 3.65012 16.9725 2.5703 18.6159 2.72364C21.12 3.07518 23.3314 6.14002 22.7596 8.29457C22.0346 10.2061 21.0352 11.078 19.6519 12.4612C15.4439 16.6584 12.1629 19.9042 8.07266 23.9944C6.53546 25.399 5.54132 25.7794 4.11318 24.4548C3.37653 23.7182 3.05424 22.9969 3.14631 22.2909C3.24849 21.4672 3.71478 20.8975 4.25126 20.3572L14.9787 9.6297C15.4688 9.13877 16.5849 8.19645 17.0506 8.61683C17.4078 9.44565 16.4878 10.2367 16.0377 10.6887L6.18497 20.5414L8.07261 22.4751L17.9714 12.6224C19.6763 10.8639 20.9012 8.71501 18.9842 6.72921C16.8641 4.90949 14.6306 6.12434 13.045 7.69607L2.31754 18.4235C1.21256 19.5285 0.583349 20.7255 0.429894 22.0147C0.308841 23.822 1.12366 25.2727 2.22546 26.3886C3.26111 27.4186 4.37997 27.9891 5.77064 28C7.44261 27.933 9.08658 26.8318 10.0063 25.9282Z" fill="white"/>
</svg>
